<svg class="icon-left-to-top-menu" xmlns="http://www.w3.org/2000/svg" viewBox="0 0 1230.2 1029.9">
                                    <g>
                                        <path d="M662,521.3V351.3h42.7l25.7,115.9l25.3-115.9h42.8v169.9H772V387.4l-28.1,133.8h-27.5l-28-133.8v133.8H662L662,521.3z
                                                 M954.3,521.3h-31.1L911,482.6h-56.6l-11.6,38.7h-30.4l55.1-169.9h30.2L954.3,521.3L954.3,521.3z M901.8,454l-19.6-63.1l-19,63.1
                                                 H901.8L901.8,454z M988.1,351.3h97.7v141.4h12.4v65.7h-23.9v-37.1h-88.9v37.1h-23.7v-65.7h11.9c5.9-14.5,9.8-31.4,11.6-50.7
                                                 c1.8-19.1,2.8-43.5,2.8-72.7L988.1,351.3L988.1,351.3z M1015.2,379.8c0,51.6-3.8,89.4-11.6,112.9h53.8V379.8H1015.2L1015.2,379.8z
                                                 M1117.7,351.3h26.8v113.1l57.2-113.1h28.4v169.9h-26.6v-111l-57.2,111h-28.6V351.3z" fill="#FFF"></path>
                                        <path d="M0,522.4v-8.5h643.2v8.8c-42.2,2-45.3,4.7-87.1,12.3c-39.2,6-129.1,59.5-134.9,117.8h-19.6c-1-61.1-37.3-111.9-109.4-111.9
                                                 c-68,0-127.5,46.7-127.8,111.9h-17.8C145.8,590.7,71.8,522.4,0,522.4L0,522.4z" fill="#FFF"></path>
                                        <path d="M143.5,448.1l-36.3-0.2l-39.4,21.6H18.6L0,488.1v9.2h250.3v-11.9l-6.1-1.3v-10.1l-37.1-6l-17.2-19.8h-24.2l-10.6-18.6h74.4
                                                 l-20.6-14.7v-6.5h25.7l32.5,43.5l23.5,0.3v-15.9h-15.2v-6.7h118.2l12.7,11.4l-9.6,13.1c-21.4-19-62.9-29.8-86.3,13.1l-43,0.3
                                                 l-34.2-30.6h-30.4v11.3l10.6,17.5l21.1,0.3l-1.8-13.9c14.6,5.1,20.3,17.5,22.9,31.7l67.2,0.3c0-47.1,67-47.6,67,1l8.8,0.3
                                                 l25.7-38.6v-7.2l-39.6-45.9H261.7l-6.1-17.5h-76.8L179,387h4.1l8,28.6l-59.8-0.2v10.8L143.5,448.1L143.5,448.1z M295.4,409h87.8
                                                 v9.2h-87.8V409z M355.7,453.9c-15.8,0-28.6,12.8-28.6,28.6s12.8,28.6,28.6,28.6c15.8,0,28.6-12.8,28.6-28.6
                                                 S371.5,453.9,355.7,453.9z M370.6,482.3c0,8.1-6.6,14.7-14.7,14.7c-8.1,0-14.7-6.6-14.7-14.7c0-8.1,6.6-14.7,14.7-14.7
                                                 C364,467.6,370.6,474.2,370.6,482.3z" fill="#FFF"></path>
                                        <path d="M181.3,305.9c178-311.1,610.7-324.5,775,0H847.5C762.2,182.5,678,120.6,514.1,119.3C350.1,118,212.2,221.6,166.2,383h-25.7
                                                 c56.2-227,254-382.4,496.7-383c255,5.2,403.3,166.2,467.3,305.9h-99.1C848.2-42.5,352.3-46.6,181.3,305.9L181.3,305.9z" fill="#FFF"></path>
                                        <path d="M32.5,500.2c1.4,7.7,11.5,11.3,21.7,10.9c10.1,0.3,20.2-3.2,21.7-10.9H32.5z" fill="#FFF"></path>
                                        <path d="M174.4,500.2c1.4,7.7,11.5,11.3,21.7,10.9c10.1,0.3,20.2-3.2,21.7-10.9H174.4z" fill="#FFF"></path>
                                        <path d="M1125.5,560.5c-29.7,177.4-184,312.6-369.8,312.6c-146.1,0-272.5-83.6-334.4-205.5H146.6c63.4,209.6,258,362.2,488.3,362.2
                                                 c268,0,487.7-206.7,508.4-469.4H1125.5z M273.8,683.7H319c33.7,64.7,82.8,120.2,142.4,161.5h-60.2
                                                 C347.6,801.8,303.8,746.7,273.8,683.7z M644,945.3c-72.8-7.4-140.5-31.8-199.3-69l53.7-8.1c52.7,29.4,111.9,48.4,174.9,54.4
                                                 L644,945.3z M693.6,946.7c-4.1,0-10.2,0.9-14.3,0.8l18.8-23.2c6,0.2,13.9-0.6,20-0.6c41.1,0,78.9-4.5,116.7-14.9l11.9,12.3
                                                 C798.3,938.3,748,946.7,693.6,946.7z M874.8,910l-13.2-9.5c43.9-15.1,84.6-36.8,121.1-63.9l5.7,3.2
                                                 C954.4,868.4,916.1,892.1,874.8,910z" fill="#FFF"></path>
                                    </g>
</svg>
